<?xml version="1.0" encoding="UTF-8"?>
<svg version="1.1" viewBox="0 0 24 24" xml:space="preserve" xmlns="http://www.w3.org/2000/svg" xmlns:xlink="http://www.w3.org/1999/xlink"><defs><linearGradient id="linearGradient1007" x1="2" x2="22" y1="12" y2="12" gradientUnits="userSpaceOnUse"><stop stop-color="#480048" offset="0"/><stop stop-color="#c04848" offset="1"/></linearGradient><linearGradient id="linearGradient4667" x1="2" x2="22" y1="12" y2="12" gradientUnits="userSpaceOnUse"><stop stop-color="#7474bf" offset="0"/><stop stop-color="#348ac7" offset="1"/></linearGradient></defs><g fill="url(#linearGradient1007)"><g fill="url(#linearGradient1007)"><g fill="url(#linearGradient4667)"><path d="m20 19v-12h-16v12h16m0-16a2 2 0 0 1 2 2v14a2 2 0 0 1-2 2h-16a2 2 0 0 1-2-2v-14c0-1.11 0.9-2 2-2h16m-7 14v-2h5v2h-5m-3.42-4-4.01-4h2.83l3.3 3.3c0.39 0.39 0.39 1.03 0 1.42l-3.28 3.28h-2.83l3.99-4z"/><path d="m17.266 9.7344c-0.45312-0.45313-1.075-0.73438-1.7656-0.73438a2.5 2.5 0 0 0-2.5 2.5 2.5 2.5 0 0 0 2.5 2.5c1.1656 0 2.1375-0.79688 2.4156-1.875h-0.65c-0.25625 0.72812-0.95 1.25-1.7656 1.25a1.875 1.875 0 0 1-1.875-1.875 1.875 1.875 0 0 1 1.875-1.875c0.51875 0 0.98125 0.21563 1.3188 0.55625l-1.0062 1.0062h2.1875v-2.1875z" stroke-width=".3125"/></g></g></g></svg>
